<?xml version="1.0" encoding="utf-8"?>
<!-- Generator: Adobe Adobe Illustrator 24.2.0, SVG Export Plug-In . SVG Version: 6.00 Build 0)  -->
<svg version="1.1" id="Layer_1" xmlns="http://www.w3.org/2000/svg" xmlns:xlink="http://www.w3.org/1999/xlink" x="0px" y="0px"
	 width="304.06px" height="76.08px" viewBox="0 0 304.06 76.08" style="enable-background:new 0 0 304.06 76.08;"
	 xml:space="preserve">
<style type="text/css">
	.st0{fill:#FFFFFF;}
	.st1{fill:#005EDD;}
</style>
<g>
	<path class="st1" d="M165.61,54.13c1.54-1.26,2.91-2.77,4.08-4.48c0.39-0.56,0.76-1.17,1.1-1.78c1.38-2.48,2.37-5.31,2.99-8.55
		l2.96-14.35l1.08-4.9l1.13-5.99l0.05-0.27c-0.02-0.02-0.02-0.04-0.03-0.05h-6.2c-0.2,0-0.4,0.01-0.59,0.03
		c-0.18,0.02-0.37,0.03-0.56,0.06c-0.01,0-0.01,0-0.02,0c-0.16,0.03-0.31,0.06-0.46,0.1c-0.09,0.02-0.18,0.05-0.28,0.06
		c-0.11,0.05-0.26,0.08-0.37,0.13c-0.16,0.05-0.33,0.11-0.49,0.18c-0.19,0.08-0.37,0.17-0.56,0.27c0,0-0.02,0-0.02,0.02
		c-0.16,0.08-0.32,0.15-0.47,0.27c-0.15,0.09-0.31,0.21-0.46,0.32c-0.16,0.11-0.3,0.22-0.44,0.35c-0.13,0.11-0.28,0.24-0.41,0.39
		c-0.15,0.14-0.28,0.28-0.39,0.43c-0.1,0.11-0.18,0.22-0.26,0.35c-0.27,0.34-0.5,0.7-0.68,1.09c-0.09,0.16-0.18,0.33-0.26,0.51
		c-0.06,0.16-0.12,0.34-0.18,0.51c0,0.02-0.01,0.02-0.01,0.04c-0.12,0.64-0.25,1.28-0.39,1.94c-1.39,7.09-2.79,14.2-4.2,21.33
		c0,0-0.17,0.38-0.27,0.64c-0.06,0.16-0.14,0.32-0.2,0.46c-0.07,0.18-0.17,0.34-0.25,0.48c-0.1,0.21-0.21,0.42-0.32,0.61
		c-0.12,0.19-0.25,0.39-0.37,0.56c-0.14,0.21-0.27,0.42-0.44,0.59c-0.06,0.09-0.12,0.16-0.18,0.24c-0.23,0.28-0.47,0.52-0.73,0.74
		c-0.01,0.02-0.02,0.03-0.04,0.05c-1.66,1.45-3.57,2.22-5.78,2.29c-0.13,0.02-0.26,0.02-0.39,0.02c-2.46,0-4.22-0.78-5.35-2.31
		c-1-1.38-1.27-3.43-0.85-6.25c0.08-0.3,0.14-0.61,0.2-0.92l0.16-0.76l2.81-13.6c0.02-0.06,0.02-0.11,0.04-0.17
		c0.41-2.08,0.81-4.18,1.23-6.27c0.29-1.49,0.57-2.96,0.87-4.46c0-0.01,0.01-0.03,0.01-0.04c0.03-0.09,0.04-0.19,0.06-0.28h-6.16
		c-2.41,0-4.54,1.2-5.87,3.06c-0.45,0.6-0.8,1.31-1.05,2.05c-0.13,0.64-0.25,1.28-0.39,1.94c-1.39,7.09-2.8,14.2-4.21,21.33
		c-0.04,0.2-0.77,1.93-1.26,2.67c-0.44,0.66-0.93,1.23-1.5,1.71c-1.79,1.54-3.79,2.31-6.16,2.31c-0.21,0-0.41-0.01-0.6-0.03
		c-2.11-0.11-3.72-0.87-4.76-2.28c-1.14-1.53-1.38-3.96-0.65-7.36l0.58-2.77l2.34-11.41c0.02-0.06,0.02-0.11,0.05-0.17
		c0.69-3.58,1.4-7.16,2.1-10.73c0.02-0.09,0.03-0.18,0.05-0.27c-0.02-0.02-0.02-0.04-0.04-0.05h-6.1c-2.41,0-4.54,1.2-5.88,3.06
		c-0.45,0.6-0.81,1.31-1.05,2.05c-0.12,0.64-0.25,1.28-0.38,1.94c-1.39,7.09-2.8,14.2-4.21,21.33c-0.06,0.28-0.39,1.34-0.5,1.55
		c-0.02,0.05-0.02,0.06-0.05,0.11c-0.1,0.21-0.21,0.42-0.35,0.62c-0.03,0.06-0.06,0.12-0.09,0.17c-0.05,0.11-0.1,0.2-0.18,0.3
		c-0.07,0.11-0.15,0.21-0.22,0.31c-0.14,0.22-0.29,0.43-0.47,0.62c-0.21,0.26-0.44,0.5-0.69,0.72l-0.06,0.05
		c-1.38,1.09-3.46,2.08-5.85,2.32c-0.11,0-0.19-0.06-0.31-0.06c-0.83,0-1.57-0.09-2.24-0.27c-1.31-0.33-2.3-1.01-2.98-2.04
		l-0.02-0.02c-0.01-0.01-0.01-0.03-0.03-0.03c-0.23-0.25-0.43-0.52-0.59-0.82c-0.01-0.01-0.01-0.01-0.03-0.03
		c-0.15-0.28-0.26-0.59-0.34-0.91c-0.02-0.08-0.02-0.14-0.04-0.22c-0.07-0.29-0.11-0.6-0.11-0.9c0.01-0.05,0.01-0.11,0.01-0.16
		c0.02-0.32,0.07-0.64,0.17-0.95v-0.04c0.06-0.2,0.11-0.4,0.18-0.6c0.04-0.12,0.05-0.27,0.1-0.41c0.08-0.29,0.14-0.58,0.22-0.87
		c0.01-0.05,0.01-0.09,0.03-0.14c0.07-0.37,0.15-0.74,0.24-1.1l0.15-0.76l2.81-13.6c0.01-0.06,0.01-0.11,0.05-0.17
		c0.68-3.58,1.39-7.16,2.09-10.73c0.02-0.09,0.03-0.18,0.05-0.27c-0.01-0.02-0.01-0.04-0.03-0.05h-6.1c-2.41,0-4.55,1.2-5.88,3.06
		c-0.45,0.6-0.8,1.31-1.05,2.05c-0.13,0.64-0.25,1.28-0.39,1.94c-1.11,5.66-2.23,11.37-3.36,17.06l-0.01,0.06l-0.33,1.29
		c-0.54,2.5-1.33,4.49-2.42,5.98c-0.35,0.49-0.76,0.94-1.19,1.32c-0.95,0.82-2.21,1.54-3.59,2.06c-0.76,0.31-1.69,0.37-2.47,0.37
		c-0.05,0-0.35,0-0.4-0.06c-2.8-0.2-3.93-0.76-4.96-2.32c-0.6-0.85-0.95-1.93-1.03-3.23v-0.02c-0.04-0.76,0-1.58,0.14-2.48
		l0.12-0.55v-0.01l5.49-26.34h-6.59c-0.68,0-5.23,0.14-5.23,0.14c-0.55,0-1.07,0.01-1.59,0.04h-0.05c-0.26,0.02-0.53,0.03-0.79,0.07
		c-0.09,0-0.19,0-0.28,0.02c-0.09,0-0.2,0.01-0.31,0.03c-0.41,0.03-0.8,0.08-1.2,0.14c-0.38,0.05-0.78,0.11-1.15,0.18
		c-0.21,0.04-0.42,0.08-0.63,0.14c-0.35,0.07-0.69,0.15-1.04,0.24h-0.02c-0.49,0.13-0.98,0.27-1.46,0.43
		c-0.49,0.16-0.95,0.34-1.39,0.53c-0.08,0.02-0.14,0.05-0.22,0.08c-0.06,0.03-0.14,0.06-0.2,0.1c-0.12,0.05-0.24,0.1-0.36,0.16
		c-0.03,0.01-0.06,0.02-0.09,0.04c-0.19,0.09-0.36,0.19-0.54,0.28c-0.25,0.11-0.51,0.22-0.75,0.35c-0.03,0.01-0.06,0.01-0.07,0.03
		c-0.59,0.32-1.14,0.66-1.68,1.01c0,0.02-0.02,0.02-0.02,0.02c-0.54,0.35-1.06,0.74-1.57,1.15c-1.5,1.27-2.86,2.77-4.02,4.52
		c-0.41,0.58-0.79,1.18-1.14,1.81c0,0.01-0.01,0.01-0.01,0.03c-0.19,0.35-0.39,0.72-0.59,1.11c-0.15,0.27-0.26,0.55-0.39,0.83
		c-0.05,0.12-0.12,0.24-0.17,0.35c-0.03,0.07-0.05,0.14-0.08,0.22c-0.15,0.34-0.29,0.7-0.42,1.04c-0.02,0.02-0.02,0.05-0.02,0.07
		c-0.05,0.11-0.1,0.23-0.15,0.35c-0.06,0.21-0.13,0.42-0.19,0.63c-0.02,0.04-0.04,0.09-0.05,0.14c-0.05,0.1-0.08,0.19-0.1,0.3
		c-0.02,0.07-0.04,0.13-0.05,0.2c-0.05,0.14-0.1,0.28-0.13,0.43c-0.08,0.24-0.15,0.48-0.21,0.74c-0.12,0.36-0.2,0.75-0.28,1.13
		c-0.08,0.37-0.17,0.77-0.25,1.15c0,0.04-0.01,0.06-0.01,0.09l-1.86,9.05c-0.06,0.27-0.14,0.54-0.24,0.81
		c-0.03,0.15-0.1,0.3-0.16,0.45c-0.08,0.21-0.17,0.43-0.26,0.63c-0.15,0.25-0.29,0.49-0.44,0.73c-0.03,0.04-0.06,0.1-0.11,0.13
		c-0.01,0.03-0.04,0.06-0.06,0.1c-0.15,0.2-0.3,0.4-0.48,0.59c-0.09,0.1-0.19,0.17-0.28,0.27c-0.12,0.13-0.24,0.26-0.37,0.35
		c0,0,0,0.02-0.02,0.02c-0.23,0.19-0.46,0.37-0.7,0.53c-0.28,0.18-0.57,0.33-0.87,0.48c-0.01,0-0.05,0-0.06,0.01
		c-0.3,0.13-0.59,0.24-0.9,0.33c-0.02,0-0.03,0-0.05,0.01c-0.18,0.05-0.36,0.08-0.56,0.11c-0.13,0.03-0.28,0.05-0.42,0.07
		c-0.16,0.02-0.3,0.03-0.43,0.03c-0.1,0-0.19,0.02-0.28,0.02h-1.85h-5.7c-0.1,0-0.17-0.02-0.26-0.02c-0.26,0-0.53-0.01-0.78-0.05
		c-0.06-0.02-0.12,0-0.18-0.02c-0.06,0-0.12-0.01-0.17-0.03c-0.31-0.04-0.6-0.11-0.88-0.17c-0.02-0.02-0.05-0.02-0.07-0.02
		c-0.09-0.02-0.18-0.05-0.27-0.08c-0.05-0.01-0.08-0.03-0.13-0.05c-0.2-0.08-0.4-0.16-0.59-0.23c-0.55-0.36-1.07-0.76-1.46-1.27
		c-1.07-1.51-1.29-3.91-0.63-7.18v-0.01c0.03-0.08,0.04-0.16,0.06-0.24l0.06-0.27l0.15-0.76l0.34-1.67l0.34-1.59l0.77-3.78
		l0.75-3.68l0.04-0.17l0.31-1.46l0.17-0.83l0.09-0.42c0.02-0.06,0.02-0.11,0.05-0.17c0.14-0.75,0.29-1.5,0.43-2.24l-0.2,0.01h-4.58
		c-0.12,0-0.26,0.01-0.38,0.03l-2.7,0.05c-0.31,0.01-0.62,0.01-0.92,0.03H7.4c-1.4,0.24-2.66,1.2-3.38,2.58
		c-0.14,0.24-0.26,0.51-0.36,0.8c-0.05,0.14-0.1,0.29-0.14,0.43c-0.01,0.01-0.01,0.02-0.01,0.02c-0.02,0.17-0.06,0.33-0.09,0.5
		l-0.05,0.25l-0.89,4.36l-0.77,3.8l-0.35,1.71l-0.51,2.51c-0.15,0.76-0.29,1.51-0.37,2.23c-0.02,0.08-0.04,0.18-0.05,0.26
		c-0.12,0.67-0.26,1.36-0.4,2.03c0,0.07-0.02,0.11-0.03,0.18h0.03c-0.06,1.36,0,2.62,0.18,3.79c0.07,0.4,0.13,0.79,0.22,1.17
		c0.08,0.35,0.17,0.71,0.27,1.04c0.33,1.19,0.84,2.26,1.46,3.22c0,0.02,0.02,0.02,0.02,0.03c0.06,0.1,0.14,0.18,0.2,0.28
		c0.14,0.18,0.27,0.36,0.4,0.54c0.39,0.46,0.8,0.9,1.25,1.29L4,55.87c0.52,0.44,1.09,0.84,1.69,1.2c0,0,0,0,0,0.01
		c0.07,0.05,0.14,0.09,0.21,0.12c0.04,0.03,0.09,0.04,0.13,0.06c0.16,0.08,0.3,0.18,0.46,0.25c0.26,0.14,0.53,0.27,0.82,0.38
		c0.05,0.02,0.1,0.04,0.15,0.06C7.5,57.98,7.54,57.99,7.57,58c0.03,0.02,0.07,0.03,0.1,0.05c0.03,0.01,0.08,0.03,0.12,0.04
		c0.02,0.01,0.05,0.02,0.08,0.03c0.02,0.01,0.03,0.02,0.05,0.02c0.16,0.07,0.34,0.11,0.5,0.16c0.22,0.08,0.41,0.16,0.63,0.22
		c0.06,0.02,0.14,0.04,0.21,0.05c0.01,0.02,0.01,0.02,0.02,0.02c0.03,0.02,0.06,0.02,0.09,0.03c0.31,0.08,0.61,0.14,0.92,0.21
		c0.49,0.11,1,0.19,1.52,0.27c0.18,0.02,0.35,0.05,0.52,0.08h0.04c0.65,0.08,1.32,0.15,2.01,0.16c0.46,0.02,0.92,0.03,1.4,0.03
		c0,0,10.4,0.57,13.82,0l0.18-0.03c0.01-0.01,0.03-0.01,0.04-0.01c2.16-0.7,4.06-2.01,5.79-3.42c0.17-0.14,0.33-0.27,0.49-0.41
		c0.52-0.41,1.02-0.85,1.51-1.32c0.59-0.57,1.15-1.18,1.68-1.82c0.25-0.37,0.48-0.73,0.7-1.12c0.26-0.45,0.5-0.88,0.7-1.34
		c0.04-0.04,0.05-0.08,0.07-0.11c0.05-0.09,0.08-0.18,0.13-0.26c0.03-0.07,0.04-0.13,0.08-0.18c0.02-0.05,0.03-0.08,0.05-0.11
		c0.17-0.4,0.36-0.8,0.52-1.22c0.04-0.09,0.07-0.19,0.12-0.3c0.01-0.03,0.01-0.05,0.03-0.08c0.05-0.11,0.08-0.21,0.11-0.32
		c0.04-0.06,0.05-0.15,0.08-0.21c0.11-0.32,0.23-0.63,0.32-0.94c0.08-0.26,0.15-0.52,0.21-0.77c0.07-0.23,0.13-0.45,0.19-0.68
		c0.03-0.09,0.06-0.19,0.08-0.28l0.02-0.06c0.02-0.08,0.04-0.16,0.06-0.23l0.02-0.07l0.05-0.19l0.25-1.2l1.2-5.62l0.03-0.16
		c0.05-0.29,0.12-0.56,0.17-0.8c0.07-0.47,0.14-0.83,0.19-1.09l0.06-0.31l0.03-0.17c0.02-0.07,0.03-0.11,0.05-0.18
		c0.08-0.42,0.19-0.78,0.29-1.17c0.03-0.1,0.05-0.21,0.08-0.3c0-0.04,0.01-0.08,0.03-0.11c0.04-0.12,0.07-0.21,0.1-0.31
		c0.18-0.58,0.38-1.14,0.62-1.65l0.01-0.02c0.16-0.4,0.35-0.77,0.54-1.12c0.03-0.04,0.06-0.09,0.08-0.14
		c0.18-0.32,0.36-0.61,0.57-0.88c0.16-0.24,0.36-0.45,0.55-0.68c0.08-0.1,0.18-0.22,0.3-0.31c0.02-0.03,0.05-0.07,0.08-0.08
		c0.06-0.07,0.14-0.14,0.21-0.21c0.03-0.02,0.05-0.04,0.07-0.07c0.07-0.06,0.14-0.12,0.2-0.19c0.45-0.36,0.92-0.7,1.42-0.97
		c0.14-0.09,0.59-0.31,0.62-0.33c0.16-0.1,0.34-0.16,0.51-0.25c0.31-0.17,0.62-0.33,0.94-0.46c0.07-0.03,0.14-0.04,0.2-0.06
		c0.49-0.18,1-0.3,1.52-0.4c0.02,0,0.02,0,0.02,0c0.57-0.09,1.16-0.16,1.76-0.16c0.02,0,0.04,0.02,0.03,0.05l-0.02,0.1L54.85,28
		l-2.36,11.59c-0.59,2.9-0.72,5.53-0.36,7.9c0.36,2.4,1.19,4.47,2.52,6.22c1.26,1.76,3.04,3.15,5.26,4.11
		c0.12,0.05,0.23,0.1,0.35,0.14c0.17,0.09,0.35,0.16,0.53,0.22c1.97,0.74,4.3,1.1,6.99,1.13h0.1c0.05,0,0.05,0,0.09,0
		c2.62,0.05,7.94-1.23,8.39-1.39c0.26-0.1,0.52-0.21,0.78-0.31c0.19-0.08,0.41-0.14,0.59-0.22c0.02-0.02,0.05-0.02,0.07-0.03
		c0.16-0.07,0.34-0.15,0.5-0.23c0.05-0.01,0.09-0.03,0.12-0.05c0.21-0.09,0.42-0.21,0.64-0.32c0.01,0,0.01-0.01,0.03-0.01
		c0.25-0.13,0.5-0.26,0.74-0.39c0.18-0.09,0.36-0.19,0.52-0.28c0.09-0.06,0.15-0.12,0.24-0.16c0.59-0.37,1.17-0.76,1.72-1.18
		c0.07-0.06,0.14-0.12,0.23-0.15c0.02-0.01,0.43,0.22,0.55,0.32c0.15,0.12,0.26,0.27,0.4,0.38c0.09,0.1,0.18,0.18,0.28,0.27
		c0.02,0.03,0.05,0.05,0.07,0.07c0.07,0.06,0.14,0.12,0.21,0.18c0.04,0.04,0.08,0.07,0.13,0.11c0.09,0.08,0.19,0.15,0.28,0.23
		c0.04,0.03,0.08,0.07,0.13,0.09c0.1,0.09,0.2,0.16,0.3,0.23c0.04,0.03,0.08,0.06,0.13,0.08c0.62,0.43,1.28,0.82,1.99,1.16
		c0.16,0.08,0.32,0.16,0.48,0.24c2.15,0.92,4.79,1.45,7.77,1.49h0.26c0.14,0,0.29-0.07,0.46-0.12c0.39-0.01,0.78-0.02,1.17-0.05
		c2.49-0.14,4.8-0.58,6.89-1.39c1.92-0.69,3.63-1.6,5.23-2.71c0.03-0.01,0.06-0.03,0.07-0.04c0.19-0.12,0.37-0.25,0.55-0.37
		c0.01,0,0.03,0,0.03,0c0.24,0.27,0.48,0.54,0.75,0.78c1.16,1.11,2.57,1.97,4.19,2.6c1.21,0.44,2.54,0.76,3.99,0.96
		c1.25,0.18,2.58,0.27,3.99,0.27c3.06,0,5.8-0.41,8.41-1.28c0.79-0.27,1.54-0.59,2.28-0.93c0.26-0.13,0.52-0.24,0.78-0.37
		c0.04-0.02,0.07-0.03,0.1-0.06c0.59-0.31,1.15-0.64,1.7-1c0.03-0.01,0.05-0.03,0.08-0.04c0.29-0.2,0.57-0.39,0.84-0.6
		c0.1-0.08,0.21-0.14,0.31-0.22c0.02-0.02,0.05,0,0.05,0c0.37,0.42,0.78,0.8,1.21,1.15c1.05,0.88,2.28,1.57,3.72,2.12
		c1.76,0.64,3.78,1.03,6.03,1.17c0.62,0.04,1.26,0.06,1.92,0.06c3.05,0,5.82-0.41,8.43-1.28C161.29,57.16,163.6,55.88,165.61,54.13z
		"/>
	<path class="st1" d="M88.07,9.16h7.02c0.11,0,0.24-0.02,0.35-0.03v0.03l4.55-0.08c0.33-0.02,0.67-0.02,0.99-0.04h0.19
		c1.47-0.24,2.82-1.21,3.59-2.61c0.15-0.26,0.27-0.53,0.39-0.82c0.12-0.3,0.21-0.6,0.27-0.91L106.38,0l-0.71,0.02
		c-2.16,0.03-4.32,0.08-6.48,0.1h-0.06l-1.8,0.05h-4.74c-0.13,0-0.27,0.02-0.4,0.03l-2.77,0.06c-0.34,0.02-0.66,0.02-0.96,0.03
		h-0.19c-1.44,0.24-2.76,1.2-3.51,2.58c-0.15,0.24-0.27,0.52-0.37,0.8c-0.11,0.31-0.21,0.61-0.27,0.9l-0.94,4.66h0.69
		C85.27,9.21,86.66,9.18,88.07,9.16z"/>
	<path class="st1" d="M22.54,64.16h-0.07l-1.79,0.05h-4.74c-0.13,0-0.28,0.02-0.4,0.03l-2.79,0.05c-0.34,0.02-0.66,0.02-0.96,0.03
		h-0.19c-1.44,0.24-2.76,1.2-3.51,2.58c-0.15,0.24-0.27,0.51-0.37,0.8c-0.11,0.3-0.21,0.61-0.27,0.9L6.5,73.26l0.69-0.02
		c1.41-0.03,2.82-0.05,4.21-0.07h7.02c0.11,0,0.24-0.02,0.35-0.03v0.03l4.55-0.08c0.34-0.02,0.67-0.02,0.99-0.03h0.19
		c1.47-0.24,2.82-1.22,3.59-2.61c0.14-0.26,0.27-0.53,0.38-0.82c0.13-0.31,0.21-0.61,0.28-0.92l0.96-4.71l-0.7,0.02
		C26.86,64.1,24.7,64.13,22.54,64.16z"/>
	<path class="st1" d="M271.48,43.13l10.06-6.1c1.07-0.59,1.07-2.24,0-2.84l-10.06-6.1c-1.07-0.74-2.65,0.14-2.58,1.41v12.22
		C268.83,42.99,270.39,43.87,271.48,43.13z"/>
	<path class="st1" d="M260.04,23.66c0.56-0.62,1.15-1.25,1.74-1.83c0.59-0.51,1.25-1.02,1.94-1.54c1.52-1.07,2.04-3.35,1.11-5.17
		c-0.93-1.76-2.87-2.39-4.39-1.31c-0.88,0.62-1.74,1.31-2.58,2.05c-0.83,0.74-1.62,1.54-2.35,2.39c-1.25,1.42-1.3,3.81-0.05,5.28
		C256.76,25.07,258.79,25.13,260.04,23.66z"/>
	<path class="st1" d="M302.98,27.96c-2.06-7.32-6.84-13.41-13.48-17.12c-6.63-3.72-14.33-4.65-21.65-2.56
		c-0.31,0.09-0.59,0.22-0.86,0.39c-1.04,0.64-1.62,1.73-1.67,2.88c-0.03,0.69,0.14,1.38,0.53,2.02l1.94,3.07
		c0.82,1.27,2.34,1.89,3.8,1.55c1.51-0.35,3.04-0.51,4.57-0.45c9.29,0.28,16.9,7.74,17.34,17.01c0.03,0.49,0.03,0.99,0.02,1.51
		c-0.05,1.49-0.29,2.98-0.72,4.42c-1.35,4.59-4.41,8.38-8.6,10.67c-4.19,2.29-9.03,2.8-13.61,1.47
		c-7.69-2.26-12.73-9.26-12.86-16.88c-0.03-1.77,0.21-3.56,0.72-5.33c0.11-0.39,0.16-0.77,0.15-1.14c-0.05-1.14-0.64-2.22-1.65-2.86
		l-2.99-1.89c-0.24-0.16-0.49-0.27-0.78-0.39c-1.86-0.62-3.86,0.37-4.48,2.23c-0.98,2.91-1.49,5.97-1.49,9.06
		c0,0.88,0.05,1.73,0.12,2.59c0.02,0.16,0.03,0.32,0.05,0.48c0.08,0.73,0.19,1.45,0.33,2.16c0.06,0.32,0.13,0.62,0.19,0.93
		c0.13,0.58,0.27,1.15,0.45,1.71c0.13,0.46,0.29,0.91,0.45,1.36c0.03,0.1,0.08,0.21,0.11,0.31c0.32,0.9,0.69,1.76,1.09,2.61v0.02
		c-1.2,0.05-2.29,0.08-2.79,0.08c-2.55,0-4.34-0.77-5.46-2.32c-1.12-1.54-1.38-3.86-0.7-6.84l0.61-3.14
		c0.75-3.65,0.88-6.89,0.3-9.72c-0.54-2.85-1.67-5.25-3.41-7.14c-1.7-1.94-3.88-3.38-6.58-4.42c-2.7-0.98-5.8-1.51-9.37-1.51
		c0,0-1.18,0-1.58,0c-3.77,0-6.98,2.62-7.82,6.33l-0.86,4.16h8.06c1.74,0,3.31,0.32,4.65,0.88c1.33,0.62,2.34,1.44,3.15,2.52
		c0.76,1.07,1.33,2.35,1.59,3.89c0.19,1.49,0.15,3.17-0.26,4.98c-0.4,1.89-1.03,3.54-1.89,5.09c-0.86,1.49-1.92,2.77-3.16,3.86
		s-2.66,1.89-4.23,2.46c-1.58,0.56-3.27,0.88-4.99,0.88h-10.19c-3.49,0-6.44,2.42-7.16,5.8l-0.96,4.72h16.06
		c3.57,0,6.89-0.52,10.06-1.54c3.02-0.96,5.72-2.35,8.1-4.17l0.1,0.09c1.38,1.77,3.16,3.14,5.51,4.18c2.24,0.96,4.99,1.44,8.2,1.47
		h0.1c0.67,0,7.86-0.05,13.28-0.34c0.02,0,0.02,0.02,0.03,0.02c2.23,1.72,4.69,3.09,7.37,4.1c0.3,0.11,0.61,0.22,0.91,0.33
		c0.43,0.15,0.86,0.28,1.31,0.4c0.43,0.13,0.85,0.22,1.28,0.34c0.39,0.09,0.77,0.18,1.16,0.24c0.54,0.11,1.1,0.19,1.66,0.26
		c0.31,0.03,0.59,0.08,0.9,0.11c0.88,0.08,1.78,0.14,2.69,0.14c15.68,0,28.43-12.75,28.43-28.43
		C304.04,33.03,303.69,30.45,302.98,27.96z"/>
	<path class="st1" d="M198.84,14.26c0.03-0.16,0.06-0.31,0.09-0.46c0-0.02,0-0.02,0-0.03h-6.37c-0.24,0-0.47,0.02-0.71,0.05
		c-1.6,0.12-3.04,0.77-4.19,1.74c-0.04,0.02-0.07,0.05-0.08,0.08c-1.04,1.14-1.84,2.77-2.5,4.72c-1.21,3.66-1.94,8.47-2.75,13.49
		c-0.56,2.77-1.14,5.53-1.7,8.3c-0.15,0.73-0.29,1.47-0.45,2.21c-1.44,5.27-3.57,9.92-7.22,12.62c0.02,0.03,0.02,0.05,0.05,0.05
		c-8.78,7.37-19.4,3.02-15.52,19.03l0.18-0.07l0.02,0.1c36.95-10.27,34.08-24.33,39.51-53.69
		C197.72,19.68,198.28,16.96,198.84,14.26z"/>
</g>
</svg>
